# xmcd CD database file
#
# Track frame offsets:
#	150
#	62104
#	79857
#	110082
#	135774
#
# Disc length: 2068 seconds
#
# Revision: 0
# Processed by: cddbd v1.5.2PL0 Copyright (c) Steve Scherf et al.
# Submitted via: CDex 1.70beta3
#
DISCID=3b081205
DTITLE=Eric Dolphy - The Cool Jazz Collection 44
DYEAR=2009
DGENRE=Jazz
TTITLE0=Fire Waltz
TTITLE1=Far Cry
TTITLE2=Left Alone
TTITLE3=Miss Toni
TTITLE4=Tenderly
EXTD=YEAR: 2009
EXTT0=
EXTT1=
EXTT2=
EXTT3=
EXTT4=
PLAYORDER=
